
<svg version="1.0" xmlns="http://www.w3.org/2000/svg"
 width="500.000000pt" height="500.000000pt" viewBox="0 0 500.000000 500.000000"
 preserveAspectRatio="xMidYMid meet" class="text-red-500">

<g transform="translate(0.000000,500.000000) scale(0.100000,-0.100000)"
fill="#000000" stroke="none">
<path d="M300 4215 c0 -3 0 -132 0 -287 l-1 -283 726 -3 c399 -1 725 -4 725
-7 0 -2 -40 -57 -88 -122 -48 -65 -171 -230 -272 -368 -102 -137 -431 -583
-732 -990 l-548 -740 0 -322 0 -323 1270 0 1270 0 0 290 0 290 -891 0 c-562 0
-889 4 -887 10 2 5 387 527 856 1159 l853 1150 0 273 0 273 -1141 3 c-627 1
-1140 0 -1140 -3z"/>
<path d="M2660 2490 l0 -330 1090 0 1090 0 0 330 0 330 -1090 0 -1090 0 0
-330z"/>
</g>
</svg>
